<svg version="1.1" xmlns="http://www.w3.org/2000/svg" viewBox="0 0 866.705447239995 617.1526578026293" width="866.705447239995" height="617.1526578026293">
  <!-- svg-source:excalidraw -->
  
  <defs>
    <style class="style-fonts">
      @font-face {
        font-family: "Virgil";
        src: url("https://excalidraw.com/Virgil.woff2");
      }
      @font-face {
        font-family: "Cascadia";
        src: url("https://excalidraw.com/Cascadia.woff2");
      }
    </style>
    
  </defs>
  <rect x="0" y="0" width="866.705447239995" height="617.1526578026293" fill="#ffffff"/><g stroke-linecap="round" transform="translate(580.2037137328457 11.033203125) rotate(0 138.25086675357466 297.2064615052864)"><path d="M1.38 1.66 L277.87 -0.22 L277.07 593.11 L-1.07 595.99" stroke="none" stroke-width="0" fill="#96f2d7"/><path d="M-1.29 -0.01 C101.59 1.03, 202.2 1.31, 275.05 -0.51 M0.01 -0.48 C65.72 -1.77, 129.23 -0.98, 277.24 0.68 M276.33 0.11 C273.63 173.95, 273.65 347.29, 277.26 593.96 M276.25 -0.27 C276.12 224.69, 276.3 449.85, 276.86 594.74 M276.66 595.37 C187.17 593.48, 94.29 593.34, 0.36 593.73 M277.21 593.93 C183.62 596.04, 90.3 596.92, 0.74 594.16 M-0.1 593.87 C0.38 471.9, -0.27 350.03, -0.42 -0.29 M0.38 594.5 C-1.45 410.85, -1.24 226.7, -0.12 0.23" stroke="#1e1e1e" stroke-width="1" fill="none"/></g><g stroke-linecap="round" transform="translate(10 10) rotate(0 276.3323689249763 125.25198364257812)"><path d="M0.1 -1.01 L551.32 0.13 L552.23 252.2 L-1.96 251.25" stroke="none" stroke-width="0" fill="#fab005"/><path d="M0.34 0.41 C212.3 1.1, 423.88 0.67, 553.36 0.59 M-0.08 -0.11 C188.15 0.09, 377.02 0.06, 552.98 -0.07 M551.06 -1.04 C550.38 78.79, 552.11 160.51, 551.47 249.1 M552.21 0.41 C551.76 95.82, 552 193.7, 553.2 249.97 M552.05 250.14 C434.87 249.06, 317.18 248.86, 0.03 250.3 M552.7 250.43 C362.97 251.56, 173.57 251.63, -0.23 250.13 M0.37 250.27 C-0.83 192.11, -3.46 134.48, -1.15 -0.99 M-0.17 249.72 C-1.3 191, -2.24 131.29, 0.68 0.81" stroke="#1e1e1e" stroke-width="1" fill="none"/></g><g stroke-linecap="round" transform="translate(13.33234191470359 282.4825134277344) rotate(0 273.365373409071 162.33507218744745)"><path d="M0 0 L546.73 0 L546.73 324.67 L0 324.67" stroke="none" stroke-width="0" fill="#a5d8ff"/><path d="M0 0 C164.76 0, 329.52 0, 546.73 0 M0 0 C148.3 0, 296.61 0, 546.73 0 M546.73 0 C546.73 99.54, 546.73 199.08, 546.73 324.67 M546.73 0 C546.73 123.91, 546.73 247.83, 546.73 324.67 M546.73 324.67 C331.88 324.67, 117.02 324.67, 0 324.67 M546.73 324.67 C418.6 324.67, 290.47 324.67, 0 324.67 M0 324.67 C0 242.74, 0 160.82, 0 0 M0 324.67 C0 247.95, 0 171.22, 0 0" stroke="#1e1e1e" stroke-width="1" fill="none"/></g><g transform="translate(22.036806926323266 20.10253380175368) rotate(0 57.255859375 11.5)"><text x="0" y="0" font-family="Helvetica, Segoe UI Emoji" font-size="20px" fill="#1e1e1e" text-anchor="start" style="white-space: pre;" direction="ltr" dominant-baseline="text-before-edge">Method Area</text></g><g transform="translate(593.0794461547207 24.435760498046875) rotate(0 25.009765625 11.5)"><text x="0" y="0" font-family="Helvetica, Segoe UI Emoji" font-size="20px" fill="#1e1e1e" text-anchor="start" style="white-space: pre;" direction="ltr" dominant-baseline="text-before-edge">Stack</text></g><g transform="translate(29.021756655347474 296.1485427949367) rotate(0 23.90625 11.5)"><text x="0" y="0" font-family="Helvetica, Segoe UI Emoji" font-size="20px" fill="#1e1e1e" text-anchor="start" style="white-space: pre;" direction="ltr" dominant-baseline="text-before-edge">Heap</text></g><g stroke-linecap="round" transform="translate(297.1741727172207 21.81658935546875) rotate(0 125.42407226562499 51.43408203124999)"><path d="M0 0 L250.85 0 L250.85 102.87 L0 102.87" stroke="none" stroke-width="0" fill="#96f2d7"/><path d="M0 0 C88.75 0, 177.51 0, 250.85 0 M0 0 C55.66 0, 111.32 0, 250.85 0 M250.85 0 C250.85 35.67, 250.85 71.34, 250.85 102.87 M250.85 0 C250.85 24.5, 250.85 48.99, 250.85 102.87 M250.85 102.87 C163.32 102.87, 75.79 102.87, 0 102.87 M250.85 102.87 C154.61 102.87, 58.37 102.87, 0 102.87 M0 102.87 C0 69.31, 0 35.76, 0 0 M0 102.87 C0 77.22, 0 51.57, 0 0" stroke="#1e1e1e" stroke-width="1" fill="none"/></g><g transform="translate(308.75974400628314 31.357269287109375) rotate(0 55.125 9.200000000000003)"><text x="0" y="0" font-family="Helvetica, Segoe UI Emoji" font-size="16px" fill="#1e1e1e" text-anchor="start" style="white-space: pre;" direction="ltr" dominant-baseline="text-before-edge">JVMCase.class</text></g><g stroke-linecap="round" transform="translate(297.2516873656582 144.63907623291016) rotate(0 125.42407226562499 50.61088562011719)"><path d="M0 0 L250.85 0 L250.85 101.22 L0 101.22" stroke="none" stroke-width="0" fill="#96f2d7"/><path d="M0 0 C83.63 0, 167.25 0, 250.85 0 M0 0 C71.69 0, 143.37 0, 250.85 0 M250.85 0 C250.85 21.13, 250.85 42.25, 250.85 101.22 M250.85 0 C250.85 33.26, 250.85 66.53, 250.85 101.22 M250.85 101.22 C191.24 101.22, 131.63 101.22, 0 101.22 M250.85 101.22 C167.55 101.22, 84.25 101.22, 0 101.22 M0 101.22 C0 65.52, 0 29.82, 0 0 M0 101.22 C0 66.12, 0 31.01, 0 0" stroke="#1e1e1e" stroke-width="1" fill="none"/></g><g transform="translate(312.94260533440814 157.05938720703125) rotate(0 48.02734375 9.200000000000003)"><text x="0" y="0" font-family="Helvetica, Segoe UI Emoji" font-size="16px" fill="#1e1e1e" text-anchor="start" style="white-space: pre;" direction="ltr" dominant-baseline="text-before-edge">Student.class</text></g><g transform="translate(445.08445103753314 30.582122802734375) rotate(0 36.90625 9.200000000000003)"><text x="0" y="0" font-family="Helvetica, Segoe UI Emoji" font-size="16px" fill="#1e1e1e" text-anchor="start" style="white-space: pre;" direction="ltr" dominant-baseline="text-before-edge">static area</text></g><g transform="translate(445.55808385003314 60.04638671875) rotate(0 22.66796875 9.200000000000003)"><text x="0" y="0" font-family="Helvetica, Segoe UI Emoji" font-size="16px" fill="#1e1e1e" text-anchor="start" style="white-space: pre;" direction="ltr" dominant-baseline="text-before-edge">main()</text></g><g transform="translate(446.25339635003314 88.31271362304688) rotate(0 20.890625 9.200000000000003)"><text x="0" y="0" font-family="Helvetica, Segoe UI Emoji" font-size="16px" fill="#1e1e1e" text-anchor="start" style="white-space: pre;" direction="ltr" dominant-baseline="text-before-edge">print()</text></g><g transform="translate(327.30710728753314 186.13397216796875) rotate(0 92.4921875 9.2)"><text x="0" y="0" font-family="Helvetica, Segoe UI Emoji" font-size="16px" fill="#1e1e1e" text-anchor="start" style="white-space: pre;" direction="ltr" dominant-baseline="text-before-edge">Field name and descriptor</text></g><g transform="translate(327.50681431878314 213.27935791015625) rotate(0 101.8359375 9.2)"><text x="0" y="0" font-family="Helvetica, Segoe UI Emoji" font-size="16px" fill="#1e1e1e" text-anchor="start" style="white-space: pre;" direction="ltr" dominant-baseline="text-before-edge">Method name and descriptor</text></g><g transform="translate(24.485747142516004 72.59507499036229) rotate(0 63.578125 9.200000000000003)"><text x="0" y="0" font-family="Helvetica, Segoe UI Emoji" font-size="16px" fill="#1e1e1e" text-anchor="start" style="white-space: pre;" direction="ltr" dominant-baseline="text-before-edge">MAN_SEX_TYPE</text></g><g stroke-linecap="round"><g transform="translate(165.56570319720353 81.82822143429593) rotate(0 14.296990857492531 -0.6193489594966479)"><path d="M1.37 1.21 C8.59 -1.41, 13.9 1.09, 30.52 -1.14 M-0.37 -0.24 C7.12 -1.14, 14.93 -1.02, 28.67 -0.78" stroke="#1e1e1e" stroke-width="2" fill="none"/></g><g transform="translate(165.56570319720353 81.82822143429593) rotate(0 14.296990857492531 -0.6193489594966479)"><path d="M27.44 -1.16 L17.39 4.14 L17.16 -5.25 L27.19 0.49" stroke="none" stroke-width="0" fill="#1e1e1e" fill-rule="evenodd"/><path d="M29.65 0.09 C25.85 0.19, 20.65 3.79, 16.99 5.15 M28.41 -0.95 C24.8 0.53, 21.42 2.42, 15.67 5.41 M15.52 3.94 C16.04 1.97, 16.7 -3.73, 16.66 -7.62 M15.41 4.82 C15.86 1.69, 15.23 -2.71, 15.77 -7.05 M15.24 -5.92 C20.68 -4.98, 22.47 -4.62, 28.09 0.36 M15.97 -6.41 C19.44 -4.53, 23.39 -3.34, 28.85 -0.1 M28.67 -0.78 C28.67 -0.78, 28.67 -0.78, 28.67 -0.78 M28.67 -0.78 C28.67 -0.78, 28.67 -0.78, 28.67 -0.78" stroke="#1e1e1e" stroke-width="2" fill="none"/></g></g><mask/><g transform="translate(203.99440170906365 72.94580090105296) rotate(0 21.2421875 9.200000000000003)"><text x="0" y="0" font-family="Helvetica, Segoe UI Emoji" font-size="16px" fill="#1e1e1e" text-anchor="start" style="white-space: pre;" direction="ltr" dominant-baseline="text-before-edge">"man"</text></g><g transform="translate(22.220521065161165 109.87830289467553) rotate(0 77.3515625 9.200000000000003)"><text x="0" y="0" font-family="Helvetica, Segoe UI Emoji" font-size="16px" fill="#1e1e1e" text-anchor="start" style="white-space: pre;" direction="ltr" dominant-baseline="text-before-edge">WOMAN_SEX_TYPE</text></g><g transform="translate(225.37045552795416 111.33500359708557) rotate(0 12.453125 9.200000000000003)"><text x="0" y="0" font-family="Helvetica, Segoe UI Emoji" font-size="16px" fill="#1e1e1e" text-anchor="start" style="white-space: pre;" direction="ltr" dominant-baseline="text-before-edge">null</text></g><g stroke-linecap="round"><g transform="translate(186.94049176828617 121.03846870803983) rotate(0 13.6858070751465 -0.24484563997438613)"><path d="M1.9 1.92 C9.57 -0.62, 19.03 1.78, 26.64 -0.96 M-0.09 0.08 C7.22 0.13, 13.5 0.85, 27.29 -1.43" stroke="#1e1e1e" stroke-width="2" fill="none"/></g><g transform="translate(186.94049176828617 121.03846870803983) rotate(0 13.6858070751465 -0.24484563997438613)"><path d="M29.06 -2.91 L16.98 5.48 L12.78 -6.22 L29.18 0.43" stroke="none" stroke-width="0" fill="#1e1e1e" fill-rule="evenodd"/><path d="M28.59 -0.12 C23.32 0.56, 19.3 4.85, 15.21 5.54 M27.23 -1.38 C24.71 0.42, 21.52 2.8, 15.65 5.21 M14.56 6.69 C14.59 2.13, 15.14 -2.28, 13.88 -6.1 M15.32 5.84 C15.13 1.78, 14.75 -1.52, 14.04 -5.17 M13.39 -6.17 C20.52 -3.8, 25.63 -2.38, 27.63 -0.27 M14.07 -5.45 C18.16 -3.94, 21.34 -4.06, 27.47 -1.57 M27.29 -1.43 C27.29 -1.43, 27.29 -1.43, 27.29 -1.43 M27.29 -1.43 C27.29 -1.43, 27.29 -1.43, 27.29 -1.43" stroke="#1e1e1e" stroke-width="2" fill="none"/></g></g><mask/></svg>